<svg t="1770602568346" class="icon" viewBox="0 0 1024 1024" version="1.1" xmlns="http://www.w3.org/2000/svg" p-id="3911" width="256" height="256"><path d="M565.5 1024c-2.8 0-5.5-0.9-7.5-2.7-3.4-3.1-11.1-11.4-9.8-22.9 0.7-6 0-9.6-0.6-12.4-0.3-1.5-0.6-2.9-0.6-4.4 0-1.6 0.3-3.3 0.7-5.1 0.5-2.5 1-5.4 0.5-7.4-0.2-0.8-0.5-1.3-1.1-2.3-1.9-3-3.5-6.1-3.5-14.1 0-7.3 2.1-11.6 3.9-15.3 1.2-2.4 2.2-4.5 2.6-7.5 1.1-7.5 0.5-40.8-4.5-65-1.1-5.2-2.3-10.3-3.5-15.3-4.3-18.1-8.8-36.8-5.5-61.1 1.1-8.5 2.3-14.7 3.2-19.7 2.3-12.6 3-16.4-1.3-29.6-6.5-19.6-8.3-30.6-8.3-49.3 0-13.8-2.5-24-4.6-32.3-0.5-2-1-3.9-1.4-5.7-1.3-6.1-7.8-54.9-12.4-95.6-4.6 40.7-11.1 89.5-12.4 95.6-0.4 1.8-0.9 3.7-1.4 5.7-2 8.3-4.6 18.5-4.6 32.3 0 18.6-1.9 29.7-8.3 49.3-4.4 13.2-3.7 17-1.3 29.6 0.9 5 2.1 11.2 3.2 19.7 3.3 24.4-1.2 43.1-5.5 61.1-1.2 5-2.4 10.1-3.5 15.3-4.9 24.2-5.5 57.5-4.5 65 0.4 2.9 1.4 5 2.6 7.5 1.8 3.7 3.9 8 3.9 15.3 0 7.9-1.6 11.1-3.5 14.1-0.6 1-0.9 1.5-1.1 2.3-0.5 2 0.1 4.8 0.5 7.4 0.3 1.8 0.7 3.6 0.7 5.1 0 1.5-0.3 2.9-0.6 4.4-0.6 2.9-1.3 6.4-0.6 12.4 1.3 11.4-6.4 19.8-9.8 22.9-3.8 3.4-10 3.6-15.1 0.5-0.9-0.5-1.2-0.6-1.2-0.6 0 0.1-0.3 0.2-0.6 0.4-0.5 0.2-1 0.4-1.6 0.6-4.2 1.5-16.3-0.7-18.8-3-0.3-0.2-2.1-0.6-3.7-0.6-5.6 0-13.9-4.5-13.9-17.1 0-11.5 10.7-23.4 15.8-29.2 0.6-0.7 1.1-1.2 1.5-1.7 2.3-2.7 2.3-6.3 2.2-9.1v-0.5c-1.4-8.9 0-22.9 0-23.5 0-20.5-1.8-36.1-2-38.1-15.3-64.8-18.9-115.2-10.5-145.9l0.2-0.9c1.3-5.2 1.1-18.2 0.9-20.2-1.5-16.5-0.2-39.1 1.8-44 0.9-2.2 1-10.7-1.7-21.9-2.7-11.3-5.4-35.2-5.8-40.9-8.3-106.4 6.6-183.4 8.4-188.2 1.9-4.9 3.8-14.5 3.8-22.3 0-1.2 0-28.3 2.9-38.9 2.1-7.9 3.6-28.1 2-35.1-0.5-2.3-1.8-7.3-3.4-13.2-2.3-8.6-4.3-16.4-5.9-22.8-2.7 6.8-6.3 15-10.2 23.8-2.4 5.5-4.5 10.2-5.5 12.9-1.6 4.1-2.3 7.9-3.2 12.3-0.9 5-2 10.7-4.7 18.2-1.9 5.3-5.3 11.8-10.1 20.8-4.7 8.9-10.6 20.1-17.5 34.8-2.6 5.5-5 11.6-7.5 18.1-2.4 6.1-5.1 12.9-8.3 20.2-0.9 2.1-0.9 4 0 6 6 10.3 12.4 31.1 12.4 36.7 0 6.4-6.7 11.7-12.8 12.5 0 0.3 0 0.6-0.1 0.9-0.1 2.3-0.3 5.2-2.3 7.4-3.5 3.8-18.6 3.6-28.1 0.8-10.8-3.2-17.3-9.6-18.8-18.5-2.9-17.1 5.4-35.9 10.3-47.1 1.1-2.5 2-4.6 2.5-6 2.4-7.1 7.8-36 8-38.9v-0.5c9.4-64.1 26.3-90.8 28.2-93.7 3.2-4.8 5.5-8.3 6.8-12.1 0.2-13.7 5.2-34.8 7.9-44.1 1.7-5.8 1.8-9.9 2-16.6 0.1-3.3 0.2-7 0.6-11.7 1-14.5 8.2-34.6 14-47.4 8.3-18.4 25.1-29 54.6-34.3l0.8-0.1c8.6 0 29.2-9.4 35-13.6 2-1.5 4-9.6 3.7-13.5v-17l-0.5-1c-5-10.9-7.7-16.9-8.9-20-5.1-2-8.5-6.8-10.1-14.2-3-9.1-2.9-15.8 0.3-20.2 1.6-2.2 3.7-3.4 5.5-4.1 0.2-9.3 0.9-15.2 1.5-19C469.8 14.8 488 0 511.8 0c24 0 42.4 14.8 45.6 36.8 0.6 3.8 1.3 9.7 1.5 19 1.9 0.6 3.9 1.8 5.5 4.1 3.2 4.4 3.3 11.1 0.3 19.9-1.6 7.6-5 12.4-10.1 14.5-1.2 3.2-3.9 9.1-8.9 20.1l-0.4 0.9V132c-0.3 4.2 1.7 12.3 3.7 13.8 5.7 4.3 26.3 13.6 35 13.6l0.8 0.1c18.5 3.7 44.2 11.4 54.5 34.3 5.8 12.7 13 32.8 14 47.3 0.3 4.7 0.5 8.5 0.6 11.7 0.2 6.7 0.4 10.8 2 16.6 2.7 9.4 7.7 30.4 7.9 44.1 0.9 2.6 2.6 5.2 4.6 8.2 0.9 1.3 1.7 2.7 2.6 4.1 1.7 2.8 16.8 28.9 27.8 93.4l0.1 0.7c0.2 2.8 5.6 31.7 8 38.8 0.5 1.5 1.4 3.5 2.5 6 4.9 11.2 13.2 30 10.3 47.1-1.5 8.9-8 15.3-18.8 18.5-9.5 2.8-24.6 3-28.1-0.8-2-2.2-2.2-5.1-2.3-7.4 0-0.3 0-0.6-0.1-0.9-6.2-0.8-12.8-6.1-12.8-12.5 0-5.6 6.3-26.5 12.5-37.1 0.7-1.6 0.7-3.5-0.2-5.6-3.8-7.9-7-15.3-9.8-21.9-2.5-5.9-4.9-11.5-7.4-16.6-4.2-8.5-8-16-11.3-22.5-8.6-17-14.3-28.3-16.5-37.3-1.7-7-2.5-11.3-3.1-14.5-0.8-4.3-1.2-6.7-3.2-11.7-1.1-2.7-3.1-7.4-5.5-12.9-3.9-8.8-7.4-17-10.2-23.8-1.6 6.4-3.6 14.2-5.9 22.8-1.6 6-2.9 11-3.4 13.2-1.6 7-0.1 27.2 2 35.1 2.9 10.6 2.9 37.8 2.9 38.9 0 7.7 1.9 17.4 3.8 22.3 1.9 4.9 16.7 81.9 8.4 188.2-0.4 5.7-3.1 29.6-5.8 40.9-2.7 11.2-2.6 19.7-1.7 21.9 2 4.9 3.3 27.5 1.8 44-0.2 2-0.4 15 0.9 20.2l0.2 0.9c8.4 30.6 4.7 81.1-10.5 145.9-0.2 2-2 17.7-2 38.6 0 0.2 1.4 14.1 0 23v0.5c0 2.9-0.1 6.4 2.2 9.1 0.4 0.5 0.9 1 1.5 1.7 5.1 5.7 15.8 17.7 15.8 29.2 0 12.5-8.3 17.1-13.9 17.1-1.6 0-3.4 0.4-3.9 0.7-2.3 2.1-14.4 4.4-18.6 2.9-0.6-0.2-1.1-0.4-1.6-0.6-0.3-0.1-0.6-0.3-0.8-0.3 0 0-0.4 0.2-1 0.6-2.6 1.7-5.2 2.4-7.8 2.4z m-57.8-511.8h8.5c2.3 34.6 14.6 129.5 16.5 138 0.4 1.7 0.8 3.5 1.3 5.5 2 8.2 4.8 19.5 4.8 34.3 0 17.8 1.7 27.8 7.9 46.6 5 15.3 4 20.7 1.6 33.8-0.9 4.9-2 11-3.2 19.3-3.1 22.8 1 39.9 5.4 58 1.2 5.1 2.5 10.3 3.5 15.6 4.9 24.1 5.9 58.5 4.6 67.9-0.6 4.3-2.1 7.3-3.4 10-1.6 3.3-3 6.2-3 11.6 0 6.1 1 7.8 2.2 9.5 0.7 1.2 1.7 2.6 2.2 4.8 0.9 3.8 0.2 7.8-0.5 11-0.3 1.4-0.5 2.8-0.5 3.6 0 0.6 0.2 1.6 0.4 2.7 0.6 3.1 1.5 7.7 0.7 15.1-0.9 7.7 5.2 13.8 7 15.5 0.8 0.7 2.9 0.8 5-0.5 4.3-2.7 6.8-2 9.6-0.9 0.4 0.2 0.7 0.3 1.2 0.5 1.6 0.4 8.6-0.8 10.6-1.6 3.1-2.4 8.5-2.5 9.1-2.5 0.2 0 5.4-0.1 5.4-8.5 0-8.2-9.5-18.9-13.6-23.5-0.6-0.7-1.2-1.3-1.6-1.8-4.4-5.2-4.4-11.2-4.4-14.8l0.1-1.5c1.3-7.8 0-21.4 0-21.5 0-23.3 2-39.6 2.1-40.3l0.1-0.5c14.8-62.6 18.5-113 10.6-141.9l-0.3-1c-1.8-7.2-1.3-21.9-1.1-23.1 1.5-16.6-0.1-37.1-1.2-40-2-4.9-1.5-15.5 1.3-27.1 2.6-10.8 5.2-34.7 5.6-39.5 8.1-103.7-6.1-179.7-7.9-184.5-2.1-5.5-4.4-16.3-4.4-25.3 0-9.4-0.5-29.1-2.6-36.7-2.5-9.2-4-30.7-2.1-39.2 0.5-2.4 1.9-7.4 3.5-13.6 3.1-11.6 8.8-33.2 8.8-36.9l8.5-0.8c1.2 6.2 9.4 25 14.9 37.4 2.5 5.6 4.6 10.4 5.7 13.2 2.3 5.8 2.8 8.8 3.6 13.3 0.6 3.2 1.3 7.3 2.9 14 2 8.1 7.5 19 15.9 35.5 3.3 6.6 7.1 14.1 11.3 22.6 2.6 5.3 5 11 7.6 17 2.9 6.8 5.9 13.9 9.7 21.6 2 4.4 2 8.9 0 13.1-6 10.4-11.6 29.5-11.6 33.2 0 1.6 3.6 4.1 5.9 4.1 6.4 0 6.8 6.6 6.9 8.8 0 0.5 0.1 1.2 0.2 1.8 3.8 0.9 16.3 1.2 24.8-3.4 4.3-2.3 6.8-5.5 7.5-9.6 2.5-14.6-5.1-31.9-9.7-42.3-1.2-2.8-2.2-5.1-2.8-6.7-2.5-7.2-8-35.9-8.4-41.1-10.9-63.9-26-89.2-26.7-90.3-0.8-1.3-1.7-2.6-2.5-3.9-2.3-3.6-4.6-7-5.8-10.9l-0.2-1.3c0-11.8-4.5-31.8-7.6-42.5-2-6.8-2.1-11.8-2.4-18.7-0.1-3.2-0.2-6.8-0.6-11.4-0.9-12.6-7.3-31.4-13.3-44.4-6.6-14.7-21.9-24-48.1-29.4-11.4-0.3-33.5-10.8-39.6-15.3-5.8-4.3-7.4-16.5-7.1-20.9v-18.3l1.2-2.6c2.4-5.1 8.6-18.8 9.2-20.9l0.7-2.5 2.6-0.7c3.9-0.8 5.2-4.9 6-8.4 0.1-0.5 0.2-0.9 0.3-1.1 2.8-8.4 1.5-11.4 0.9-12.3-0.8-1.2-2.4-1.2-2.9-1.2h-4.3v-4.3c0-10.8-0.8-17.3-1.4-21.3-2.6-18-17.2-29.6-37.2-29.6-19.7 0-34.1 11.6-36.8 29.5-0.6 4-1.4 10.5-1.4 21.3v4.3h-4.3c-0.5 0-2 0.1-2.9 1.2-0.7 0.9-1.9 4 0.8 12.3 0.1 0.3 0.2 0.7 0.3 1.2 0.8 3.5 2.1 7.6 6 8.4l2.7 0.6 0.5 2.8c0.5 2 6.8 15.6 9.1 20.7l1.2 2.7V132c0.3 4.1-1.4 16.3-7.1 20.6-6.1 4.5-28.2 15.1-39.6 15.3-26.2 4.8-41 13.8-48 29.4-6 13.1-12.4 31.9-13.3 44.4-0.3 4.6-0.4 8.2-0.6 11.4-0.2 6.9-0.4 11.9-2.4 18.7-3.1 10.6-7.6 30.7-7.6 42.5l-0.2 1.3c-1.6 5.3-4.5 9.5-8.1 14.9-1.8 2.7-17.7 27.9-26.8 90-0.4 5-6 33.9-8.4 41.1-0.6 1.7-1.5 3.9-2.8 6.7-4.5 10.4-12.2 27.7-9.7 42.3 0.7 4.1 3.1 7.2 7.5 9.6 8.6 4.6 21.1 4.3 24.8 3.4 0-0.5 0.1-1.2 0.1-1.8 0.1-2.2 0.5-8.8 6.9-8.8 2.4 0 5.9-2.4 5.9-4.1 0-3.6-5.5-22.8-11.4-32.8-2.1-4.6-2.1-9.1-0.2-13.4 3.1-7.1 5.7-13.6 8.1-19.9 2.6-6.6 5.1-12.9 7.8-18.6 7-14.9 12.9-26.1 17.7-35.2 4.6-8.7 7.9-15 9.6-19.7 2.4-6.8 3.4-12 4.3-16.9 0.9-4.6 1.7-9 3.6-13.9 1.1-2.8 3.2-7.6 5.7-13.2 5.5-12.4 13.7-31.2 14.9-37.5l8.4 0.8c0 3.7 5.7 25.3 8.8 36.9 1.6 6.1 3 11.2 3.5 13.5 1.9 8.5 0.4 29.9-2.1 39.2-2 7.6-2.6 27.3-2.6 36.7 0 9-2.3 19.8-4.4 25.3-1.8 4.8-16 80.8-7.9 184.5 0.4 4.9 3 28.7 5.6 39.6 2.8 11.6 3.3 22.2 1.3 27.1-1.1 2.9-2.7 23.4-1.2 40 0.1 1.1 0.7 15.9-1.2 23.1l-0.3 1c-7.9 28.9-4.1 79.3 10.6 141.9l0.1 0.5c0.1 0.7 2.1 17 2.1 39.8 0 0.6-1.4 14.2-0.1 21.9l0.1 1.5c0 3.6 0.1 9.6-4.3 14.8-0.4 0.5-1 1.1-1.6 1.8-4.1 4.6-13.6 15.3-13.6 23.5 0 8.4 5.2 8.5 5.4 8.5 0.6 0 6 0.1 9.1 2.5 2 0.8 9 2 10.7 1.6 0.4-0.1 0.8-0.3 1.1-0.4 2.8-1.1 5.2-1.8 9.6 0.9 2 1.2 4.1 1.2 5 0.5 1.9-1.7 8-7.8 7-15.5-0.9-7.3 0.1-12 0.7-15.1 0.2-1.1 0.4-2.1 0.4-2.7 0-0.8-0.3-2.2-0.5-3.6-0.6-3.2-1.4-7.2-0.5-11 0.5-2.2 1.5-3.6 2.2-4.8 1.1-1.8 2.2-3.4 2.2-9.5 0-5.4-1.4-8.2-3-11.6-1.3-2.7-2.8-5.8-3.4-10-1.3-9.4-0.3-43.8 4.6-67.9 1.1-5.3 2.3-10.4 3.5-15.6 4.3-18.1 8.4-35.2 5.4-58-1.1-8.3-2.2-14.4-3.1-19.3-2.4-13.1-3.4-18.5 1.6-33.8 6.2-18.8 7.9-28.8 7.9-46.6 0-14.8 2.8-26.1 4.8-34.4 0.5-2 0.9-3.8 1.3-5.5 2.4-8.2 14.7-103.2 17-137.7z m82 500.6z m-155.4 0z m-0.6-0.4z m156.6 0z m-244.5-489z m332.4 0z" fill="#707070" p-id="3912"></path></svg>